<?xml version="1.0" standalone="no"?><!DOCTYPE svg PUBLIC "-//W3C//DTD SVG 1.1//EN" "http://www.w3.org/Graphics/SVG/1.1/DTD/svg11.dtd"><svg t="1739463887573" class="icon" viewBox="0 0 1024 1024" version="1.1" xmlns="http://www.w3.org/2000/svg" p-id="3433" xmlns:xlink="http://www.w3.org/1999/xlink" width="200" height="200"><path d="M624.93 432.05s-248.35 0-355.36 248.35c0 0 187.77-210.99 356.37-157.49l-1.01-90.86z" fill="#9ef8f0" p-id="3434"></path><path d="M753.57 470.41L624.93 360.66v221.52z" fill="#9ef8f0" p-id="3435"></path><path d="M269.06 686.96c-1.19 0-2.38-0.3-3.48-0.92a7.066 7.066 0 0 1-3.25-8.3c18.97-59.42 48.75-110.36 88.52-151.39 2.72-2.8 7.19-2.87 9.99-0.16 2.8 2.72 2.87 7.19 0.16 9.99-31.17 32.16-55.99 70.73-74.01 114.94 20.23-19.84 52.35-48.89 91.05-75.27 39.37-26.83 77.81-45.75 114.27-56.23 46.12-13.26 89.18-13.02 127.99 0.71 2.82 1 4.71 3.67 4.71 6.66v54.69l119.51-110.7-119.51-110.7v57.54c0 1.88-0.75 3.68-2.07 5a7.089 7.089 0 0 1-4.99 2.07h-0.01c-0.35 0-32.05 0.12-76.07 10.81-3.8 0.92-7.61-1.41-8.54-5.2-0.92-3.79 1.41-7.61 5.2-8.54 33.85-8.22 60.3-10.41 72.35-11V344.1a7.07 7.07 0 0 1 11.87-5.19L759.74 465.8a7.085 7.085 0 0 1 2.26 5.18c0 1.97-0.82 3.85-2.26 5.18L622.76 603.04a7.053 7.053 0 0 1-7.63 1.29 7.075 7.075 0 0 1-4.24-6.48v-65.79c-80.48-25.74-166.31 15.6-224.64 55.3-65.28 44.44-111.41 96.66-111.87 97.18a7.016 7.016 0 0 1-5.32 2.42z" p-id="3436" fill="#9ef8f0"></path><path d="M412.38 491.28c-2.28 0-4.51-1.1-5.88-3.13-2.17-3.24-1.31-7.63 1.93-9.8 19.13-12.82 39.9-24.12 61.75-33.56 3.58-1.55 7.74 0.1 9.29 3.68 1.55 3.58-0.1 7.74-3.68 9.29-21.06 9.11-41.07 19.98-59.48 32.33a7.12 7.12 0 0 1-3.93 1.19z" p-id="3437" fill="#9ef8f0"></path></svg>