<?xml version="1.0" standalone="no"?><!DOCTYPE svg PUBLIC "-//W3C//DTD SVG 1.1//EN" "http://www.w3.org/Graphics/SVG/1.1/DTD/svg11.dtd"><svg t="1739465936534" class="icon" viewBox="0 0 1024 1024" version="1.1" xmlns="http://www.w3.org/2000/svg" p-id="8814" xmlns:xlink="http://www.w3.org/1999/xlink" width="200" height="200"><path d="M392.746667 95.573333c78.506667-34.005333 135.637333 20.906667 101.205333 101.717334a312.32 312.32 0 0 0-25.301333 125.866666c0.682667 166.485333 136.277333 308.352 301.738666 315.264a315.178667 315.178667 0 0 0 70.570667-4.864c85.802667-16 126.421333 51.968 75.008 123.136a433.28 433.28 0 0 1-372.693333 181.546667c-217.770667-9.813333-399.146667-187.861333-414.165334-407.253333A439.210667 439.210667 0 0 1 392.746667 95.616z m29.568 71.509334a361.514667 361.514667 0 0 0-217.472 358.4c12.288 179.882667 162.304 327.168 341.76 335.232a358.058667 358.058667 0 0 0 308.224-149.930667l0.64-1.024-1.024 0.170667a388.394667 388.394667 0 0 1-69.461334 6.4l-17.706666-0.426667c-205.781333-8.533333-373.674667-184.192-374.528-392.234667a391.125333 391.125333 0 0 1 31.616-157.44l-2.048 0.853334z" p-id="8815"></path></svg>